<svg width="435" height="365" viewBox="0 0 435 365" fill="none" xmlns="http://www.w3.org/2000/svg">
<path d="M161.846 26.126C156.9 33.2757 164.449 37.5228 164.449 37.5228C164.449 37.5228 158.75 46.3123 169.428 49.6248C169.428 49.6248 167.299 64.1045 177.731 67.6629L241.271 62.9074C241.271 62.9074 249.803 12.335 225.615 3.06998C201.427 -6.19507 171.786 16.369 169.182 24.2074C169.199 24.2238 164.662 22.0592 161.846 26.126Z" fill="#35174D"/>
<path d="M434.478 263.787C431.744 292.106 373.804 291.418 365.125 291.418C356.462 291.418 351.794 287.335 351.794 287.335L354.415 304.668L358.771 333.447H299.079C299.079 333.447 128.88 179.352 128.88 155.951C128.88 132.567 141.359 123.811 151.299 122.843C161.223 121.876 209.452 109.495 210.188 105.609C210.909 101.722 208.944 92.3915 208.944 92.3915C180.138 95.048 177.583 66.7938 177.583 66.7938C171.229 54.8558 170.705 36.1453 182.365 41.8519C194.025 47.5585 210.057 41.4584 212.432 38.1295C214.823 34.8171 220.26 32.964 220.915 33.7512C221.586 34.5547 220.915 41.3108 220.915 41.3108L226.483 42.2455C226.483 42.2455 228.333 50.871 228.464 53.5275C228.595 56.1841 230.593 56.7088 231.51 56.7088C232.444 56.7088 233.77 44.0985 233.77 44.0985C233.77 44.0985 244.759 42.2455 244.759 53.5275C244.759 64.8096 235.228 65.5967 235.228 65.5967C237.193 85.947 245.398 95.1792 253.602 99.41C253.602 99.41 253.602 99.41 253.602 99.4264C262.167 103.854 270.764 102.821 272.271 103.296C275.235 104.215 304.68 102.493 304.68 102.493C337.76 99.9839 353.956 128.091 356.92 131.731C359.884 135.388 376.31 155.263 401.857 184.96C427.42 214.657 437.23 235.45 434.478 263.787Z" fill="#6246EA"/>
<path d="M235.146 120.974C214.856 123.302 210.188 105.609 210.188 105.609C210.909 101.722 208.944 92.3915 208.944 92.3915C180.138 95.048 177.583 66.7938 177.583 66.7938C171.229 54.8558 170.705 36.1453 182.365 41.8519C194.025 47.5585 210.057 41.4584 212.432 38.1295C214.823 34.8171 220.26 32.964 220.915 33.7512C221.586 34.5547 220.915 41.3108 220.915 41.3108L226.483 42.2455C226.483 42.2455 228.333 50.871 228.464 53.5275C228.595 56.184 230.593 56.7088 231.51 56.7088C232.444 56.7088 233.77 44.0985 233.77 44.0985C233.77 44.0985 244.759 42.2455 244.759 53.5275C244.759 64.8096 235.228 65.5967 235.228 65.5967C237.193 85.947 245.397 95.1792 253.602 99.41C253.602 99.41 253.602 99.41 253.602 99.4264C253.667 100.099 255.076 118.694 235.146 120.974Z" fill="#FDAC9D"/>
<path d="M354.415 304.668C354.415 304.668 332.388 302.159 322.645 298.633C312.917 295.107 294.264 292.09 294.264 292.09V263.36L352.499 283.481L352.089 289.253L354.415 304.668Z" fill="#37164D"/>
<path d="M349.977 240.075C347.995 238.73 347.962 235.729 349.862 234.253C350.828 233.499 352.04 232.892 353.514 232.679C357.886 232.056 374.525 231.17 379.552 230.908C380.535 230.859 381.255 231.63 382.205 231.843C385.775 232.679 391.048 240.534 391.327 248.192C391.703 257.982 392.883 289.024 388.412 290.319C384.498 291.451 363.094 292.926 355.626 289.63C354.267 289.04 353.399 287.695 353.399 286.22C353.432 278.643 353.596 248.848 353.498 246.158C353.432 244.24 352.138 241.567 349.977 240.075Z" fill="#35174D"/>
<path d="M353.497 233.515C353.285 233.515 353.072 233.433 352.908 233.269L331.684 211.279C331.373 210.951 331.373 210.427 331.701 210.115C332.028 209.803 332.552 209.803 332.863 210.131L354.087 232.121C354.398 232.449 354.398 232.974 354.071 233.286C353.907 233.433 353.694 233.515 353.497 233.515Z" fill="#35164B"/>
<path d="M303.861 154.656H33.0787V333.447H303.861V154.656Z" fill="#3A3A47"/>
<path d="M303.861 154.656H33.0787V168.742H303.861V154.656Z" fill="#FFBB4E"/>
<path d="M145.813 208.098H113.306C112.406 208.098 111.669 207.36 111.669 206.458C111.669 205.556 112.406 204.818 113.306 204.818H145.813C146.714 204.818 147.451 205.556 147.451 206.458C147.451 207.36 146.714 208.098 145.813 208.098Z" fill="#E5E6ED"/>
<path d="M154.394 218.577H121.904C121.003 218.577 120.266 217.839 120.266 216.937C120.266 216.035 121.003 215.297 121.904 215.297H154.411C155.311 215.297 156.048 216.035 156.048 216.937C156.048 217.839 155.311 218.577 154.394 218.577Z" fill="#E5E6ED"/>
<path d="M139.967 262.836H119.153C118.252 262.836 117.515 262.098 117.515 261.196C117.515 260.294 118.252 259.556 119.153 259.556H139.967C140.867 259.556 141.604 260.294 141.604 261.196C141.604 262.098 140.884 262.836 139.967 262.836Z" fill="#E5E6ED"/>
<path d="M160.175 274.938H119.153C118.252 274.938 117.515 274.2 117.515 273.298C117.515 272.396 118.252 271.658 119.153 271.658H160.175C161.076 271.658 161.813 272.396 161.813 273.298C161.813 274.2 161.076 274.938 160.175 274.938Z" fill="#E5E6ED"/>
<path d="M190.357 287.039H128.716C127.816 287.039 127.079 286.302 127.079 285.4C127.079 284.498 127.816 283.76 128.716 283.76H190.357C191.257 283.76 191.994 284.498 191.994 285.4C191.994 286.302 191.257 287.039 190.357 287.039Z" fill="#E5E6ED"/>
<path d="M171.753 299.141H135.676C134.776 299.141 134.039 298.403 134.039 297.502C134.039 296.6 134.776 295.862 135.676 295.862H171.753C172.654 295.862 173.391 296.6 173.391 297.502C173.391 298.403 172.654 299.141 171.753 299.141Z" fill="#E5E6ED"/>
<path d="M163.844 312.801H127.767C126.866 312.801 126.129 312.063 126.129 311.161C126.129 310.259 126.866 309.521 127.767 309.521H163.844C164.744 309.521 165.481 310.259 165.481 311.161C165.481 312.063 164.761 312.801 163.844 312.801Z" fill="#E5E6ED"/>
<path d="M235.539 312.801H199.462C198.561 312.801 197.824 312.063 197.824 311.161C197.824 310.259 198.561 309.521 199.462 309.521H235.539C236.44 309.521 237.177 310.259 237.177 311.161C237.177 312.063 236.44 312.801 235.539 312.801Z" fill="#E5E6ED"/>
<path d="M217.492 299.141H181.415C180.515 299.141 179.778 298.403 179.778 297.502C179.778 296.6 180.515 295.862 181.415 295.862H217.492C218.393 295.862 219.13 296.6 219.13 297.502C219.13 298.403 218.393 299.141 217.492 299.141Z" fill="#BB7FEF"/>
<path d="M224.665 195.799H188.588C187.687 195.799 186.95 195.061 186.95 194.159C186.95 193.257 187.687 192.52 188.588 192.52H224.665C225.566 192.52 226.303 193.257 226.303 194.159C226.303 195.061 225.566 195.799 224.665 195.799Z" fill="#BB7FEF"/>
<path d="M213.382 287.039H199.871C198.971 287.039 198.234 286.302 198.234 285.4C198.234 284.498 198.971 283.76 199.871 283.76H213.382C214.283 283.76 215.019 284.498 215.019 285.4C215.019 286.302 214.299 287.039 213.382 287.039Z" fill="#11BDED"/>
<path d="M187.589 312.801H174.079C173.178 312.801 172.441 312.063 172.441 311.161C172.441 310.259 173.178 309.521 174.079 309.521H187.589C188.49 309.521 189.227 310.259 189.227 311.161C189.227 312.063 188.49 312.801 187.589 312.801Z" fill="#11BDED"/>
<path d="M245.463 274.938H171.753C170.853 274.938 170.116 274.2 170.116 273.298C170.116 272.396 170.853 271.658 171.753 271.658H245.463C246.364 271.658 247.101 272.396 247.101 273.298C247.101 274.2 246.364 274.938 245.463 274.938Z" fill="#E5E6ED"/>
<path d="M170.771 229.367H138.28C137.379 229.367 136.642 228.629 136.642 227.727C136.642 226.825 137.379 226.087 138.28 226.087H170.787C171.688 226.087 172.425 226.825 172.425 227.727C172.425 228.629 171.688 229.367 170.771 229.367Z" fill="#E5E6ED"/>
<path d="M267.063 195.799H234.556C233.656 195.799 232.919 195.061 232.919 194.159C232.919 193.257 233.656 192.52 234.556 192.52H267.063C267.964 192.52 268.701 193.257 268.701 194.159C268.701 195.061 267.98 195.799 267.063 195.799Z" fill="#E5E6ED"/>
<path d="M160.175 240.386H138.28C137.379 240.386 136.642 239.648 136.642 238.746C136.642 237.844 137.379 237.107 138.28 237.107H160.175C161.076 237.107 161.813 237.844 161.813 238.746C161.813 239.648 161.076 240.386 160.175 240.386Z" fill="#E5E6ED"/>
<path d="M208.616 250.717H138.28C137.379 250.717 136.642 249.979 136.642 249.077C136.642 248.175 137.379 247.438 138.28 247.438H208.633C209.533 247.438 210.27 248.175 210.27 249.077C210.27 249.979 209.533 250.717 208.616 250.717Z" fill="#E5E6ED"/>
<path d="M237.144 208.098H185.198C184.297 208.098 183.561 207.36 183.561 206.458C183.561 205.556 184.297 204.818 185.198 204.818H237.144C238.045 204.818 238.781 205.556 238.781 206.458C238.781 207.36 238.045 208.098 237.144 208.098Z" fill="#E5E6ED"/>
<path d="M291.087 208.098H245.463C244.562 208.098 243.825 207.36 243.825 206.458C243.825 205.556 244.562 204.818 245.463 204.818H291.087C291.988 204.818 292.725 205.556 292.725 206.458C292.725 207.36 291.988 208.098 291.087 208.098Z" fill="#11BDED"/>
<path d="M201.132 323.165H155.508C154.607 323.165 153.87 322.427 153.87 321.525C153.87 320.623 154.607 319.885 155.508 319.885H201.132C202.033 319.885 202.77 320.623 202.77 321.525C202.77 322.427 202.033 323.165 201.132 323.165Z" fill="#11BDED"/>
<path d="M176.109 208.262H156.867C155.966 208.262 155.229 207.524 155.229 206.622C155.229 205.72 155.966 204.982 156.867 204.982H176.109C177.01 204.982 177.747 205.72 177.747 206.622C177.747 207.524 177.026 208.262 176.109 208.262Z" fill="#F39695"/>
<path d="M200.068 229.367H180.826C179.925 229.367 179.188 228.629 179.188 227.727C179.188 226.825 179.925 226.087 180.826 226.087H200.068C200.969 226.087 201.706 226.825 201.706 227.727C201.706 228.629 200.969 229.367 200.068 229.367Z" fill="#F39695"/>
<path d="M224.6 240.386H168.707C167.807 240.386 167.07 239.648 167.07 238.746C167.07 237.844 167.807 237.107 168.707 237.107H224.6C225.5 237.107 226.237 237.844 226.237 238.746C226.237 239.648 225.5 240.386 224.6 240.386Z" fill="#F39695"/>
<path d="M284.308 240.386H258.646C257.745 240.386 257.008 239.648 257.008 238.746C257.008 237.844 257.745 237.107 258.646 237.107H284.308C285.208 237.107 285.945 237.844 285.945 238.746C285.945 239.648 285.208 240.386 284.308 240.386Z" fill="#F39695"/>
<path d="M250.818 240.386H230.692C229.791 240.386 229.054 239.648 229.054 238.746C229.054 237.844 229.791 237.107 230.692 237.107H250.818C251.719 237.107 252.456 237.844 252.456 238.746C252.456 239.648 251.719 240.386 250.818 240.386Z" fill="#FFBB4E"/>
<path d="M148.221 323.165H128.078C127.177 323.165 126.44 322.427 126.44 321.525C126.44 320.623 127.177 319.885 128.078 319.885H148.204C149.105 319.885 149.842 320.623 149.842 321.525C149.842 322.427 149.121 323.165 148.221 323.165Z" fill="#FFBB4E"/>
<path d="M203.949 185.14H183.823C182.922 185.14 182.185 184.402 182.185 183.501C182.185 182.599 182.922 181.861 183.823 181.861H203.949C204.85 181.861 205.587 182.599 205.587 183.501C205.587 184.402 204.866 185.14 203.949 185.14Z" fill="#FFBB4E"/>
<path d="M99.7794 154.64H33.0787V333.43H99.7794V154.64Z" fill="#1C1A23"/>
<path d="M99.7794 214.264H33.0787V227.727H99.7794V214.264Z" fill="black"/>
<path d="M47.8337 201.407H39.9403V209.311H47.8337V201.407Z" fill="#62687E"/>
<path d="M55.3996 216.937H47.5062V224.841H55.3996V216.937Z" fill="#62687E"/>
<path d="M66.9776 230.842H59.0842V238.746H66.9776V230.842Z" fill="#62687E"/>
<path d="M66.9776 244.043H59.0842V251.947H66.9776V244.043Z" fill="#62687E"/>
<path d="M66.9776 257.244H59.0842V265.148H66.9776V257.244Z" fill="#62687E"/>
<path d="M66.9776 270.444H59.0842V278.348H66.9776V270.444Z" fill="#62687E"/>
<path d="M66.9776 283.645H59.0842V291.549H66.9776V283.645Z" fill="#62687E"/>
<path d="M192.256 114.349V193.782H25.2672V114.349C25.2672 107.79 30.5731 102.477 37.1237 102.477H180.4C186.95 102.477 192.256 107.79 192.256 114.349Z" fill="#D9DEF1"/>
<path d="M192.256 114.349V131.288H25.2672V114.349C25.2672 107.79 30.5731 102.477 37.1237 102.477H180.4C186.95 102.477 192.256 107.79 192.256 114.349Z" fill="#33184B"/>
<path d="M93.7857 142.472H56.0874C55.4324 142.472 54.9083 142.997 54.9083 143.653V181.402C54.9083 182.057 55.4324 182.582 56.0874 182.582H93.7857C94.4407 182.582 94.9648 182.057 94.9648 181.402V143.636C94.9648 142.997 94.4407 142.472 93.7857 142.472ZM92.623 144.817V151.95H57.2665V144.817H92.623ZM57.2665 180.204V154.279H92.623V180.204H57.2665Z" fill="white"/>
<path d="M65.5529 168.381H77.2783C77.9334 168.381 78.4574 167.857 78.4574 167.201C78.4574 166.545 77.9334 166.02 77.2783 166.02H65.5529C64.8978 166.02 64.3738 166.545 64.3738 167.201C64.3902 167.857 64.9142 168.381 65.5529 168.381Z" fill="white"/>
<path d="M65.5529 173.088H74.9365C75.5915 173.088 76.1156 172.563 76.1156 171.907C76.1156 171.251 75.5915 170.726 74.9365 170.726H65.5529C64.8978 170.726 64.3738 171.251 64.3738 171.907C64.3738 172.563 64.9142 173.088 65.5529 173.088Z" fill="white"/>
<path d="M77.2948 175.432H65.5693C64.9143 175.432 64.3903 175.957 64.3903 176.613C64.3903 177.269 64.9143 177.794 65.5693 177.794H77.2948C77.9498 177.794 78.4739 177.269 78.4739 176.613C78.4739 175.957 77.9335 175.432 77.2948 175.432Z" fill="white"/>
<path d="M69.4178 163.347C69.8763 163.806 70.6132 163.806 71.0718 163.347C71.5303 162.888 71.5303 162.15 71.0718 161.691L69.5488 160.166L71.0718 158.641C71.5303 158.181 71.5303 157.444 71.0718 156.984C70.6132 156.525 69.8763 156.525 69.4178 156.984L67.076 159.329C66.6174 159.789 66.6174 160.526 67.076 160.986L69.4178 163.347Z" fill="white"/>
<path d="M80.3243 160.166L78.8177 161.674C78.3591 162.134 78.3591 162.871 78.8177 163.331C79.2762 163.79 80.0131 163.79 80.4717 163.331L82.8135 160.986C83.272 160.526 83.272 159.789 82.8135 159.329L80.4553 156.968C79.9968 156.509 79.2598 156.509 78.8013 156.968C78.3428 157.427 78.3428 158.165 78.8013 158.624L80.3243 160.166Z" fill="white"/>
<path d="M73.2498 163.56C73.823 163.855 74.5272 163.609 74.822 163.035L77.1638 158.329C77.4585 157.755 77.2129 157.05 76.6397 156.755C76.0666 156.46 75.3624 156.706 75.0676 157.28L72.7258 161.986C72.431 162.56 72.6603 163.265 73.2498 163.56Z" fill="white"/>
<path d="M84.3202 166.036H81.9784C81.3234 166.036 80.7993 166.561 80.7993 167.217C80.7993 167.873 81.3234 168.398 81.9784 168.398H84.3202C84.9753 168.398 85.4993 167.873 85.4993 167.217C85.4993 166.561 84.9753 166.036 84.3202 166.036Z" fill="white"/>
<path d="M84.3201 170.743H79.6201C78.9651 170.743 78.441 171.267 78.441 171.923C78.441 172.579 78.9651 173.104 79.6201 173.104H84.3201C84.9752 173.104 85.4992 172.579 85.4992 171.923C85.4992 171.267 84.9752 170.743 84.3201 170.743Z" fill="white"/>
<path d="M84.3202 175.432H81.9784C81.3234 175.432 80.7993 175.957 80.7993 176.613C80.7993 177.269 81.3234 177.794 81.9784 177.794H84.3202C84.9753 177.794 85.4993 177.269 85.4993 176.613C85.4993 175.957 84.9753 175.432 84.3202 175.432Z" fill="white"/>
<path d="M89.0202 149.589C89.6713 149.589 90.1992 149.06 90.1992 148.408C90.1992 147.756 89.6713 147.227 89.0202 147.227C88.369 147.227 87.8411 147.756 87.8411 148.408C87.8411 149.06 88.369 149.589 89.0202 149.589Z" fill="white"/>
<path d="M84.3202 149.589C84.9714 149.589 85.4993 149.06 85.4993 148.408C85.4993 147.756 84.9714 147.227 84.3202 147.227C83.669 147.227 83.1411 147.756 83.1411 148.408C83.1411 149.06 83.669 149.589 84.3202 149.589Z" fill="white"/>
<path d="M79.6365 149.589C80.2877 149.589 80.8156 149.06 80.8156 148.408C80.8156 147.756 80.2877 147.227 79.6365 147.227C78.9853 147.227 78.4574 147.756 78.4574 148.408C78.4574 149.06 78.9853 149.589 79.6365 149.589Z" fill="white"/>
<path d="M292.135 176.58C290.776 176.466 290.088 174.875 290.924 173.793C292.528 171.71 295.591 169.365 300.815 170.644C300.815 170.644 310.624 168.25 312.229 179.417C313.818 190.568 315.685 194.553 315.947 207.048C316.209 219.528 310.379 239.714 335.303 239.189L348.306 239.206C348.306 239.206 353.35 238.664 353.612 249.29C353.841 258.408 354.66 280.218 354.873 286.236C354.906 287.121 354.267 287.892 353.383 288.023C347.176 288.892 324.02 292.024 316.471 291.795C307.709 291.532 285.437 284.088 286.764 257.801C288.09 231.498 290.219 201.752 288.352 195.652C286.535 189.65 284.701 184.419 290.694 182.221C290.924 182.139 291.153 182.107 291.398 182.123C292.856 182.221 298.031 183.337 298.702 193.799C299.505 206.015 301.617 224.086 303.206 222.758C304.794 221.43 303.468 192.47 302.141 188.764C300.897 185.206 304.074 177.548 292.135 176.58Z" fill="#FFAA97"/>
<path d="M292.545 298.797V351.763C292.545 358.651 286.961 364.243 280.083 364.243H227.187C220.309 364.243 214.741 358.651 214.741 351.763V298.797C214.741 291.91 220.309 286.334 227.187 286.334H280.083C286.961 286.334 292.545 291.91 292.545 298.797Z" fill="#F7684E"/>
<path d="M292.545 298.797V317.819C278.969 313.145 268.963 318.606 263.706 325.28C258.449 331.954 251.85 345.286 238.225 340.022C224.616 334.775 214.741 342.17 214.741 342.17V298.797C214.741 291.91 220.309 286.334 227.187 286.334H280.083C286.961 286.334 292.545 291.91 292.545 298.797Z" fill="#FFBB4E"/>
<path d="M238.225 328.658C246.175 328.658 252.619 322.205 252.619 314.244C252.619 306.283 246.175 299.83 238.225 299.83C230.275 299.83 223.83 306.283 223.83 314.244C223.83 322.205 230.275 328.658 238.225 328.658Z" fill="white"/>
<path d="M178.107 126.73H61.9993C56.7261 126.73 52.4519 122.45 52.4519 117.169C52.4519 111.889 56.7261 107.609 61.9993 107.609H178.091C183.364 107.609 187.638 111.889 187.638 117.169C187.638 122.466 183.364 126.73 178.107 126.73Z" fill="white"/>
<path d="M39.9403 126.73C34.6672 126.73 30.3929 122.45 30.3929 117.169C30.3929 111.889 34.6672 107.609 39.9403 107.609C45.2135 107.609 49.4877 111.889 49.4877 117.169C49.4877 122.466 45.2135 126.73 39.9403 126.73Z" fill="white"/>
<path d="M178.32 155.869H113.306C112.635 155.869 112.078 155.312 112.078 154.64C112.078 153.967 112.635 153.41 113.306 153.41H178.32C178.992 153.41 179.548 153.967 179.548 154.64C179.548 155.312 178.992 155.869 178.32 155.869Z" fill="white"/>
<path d="M156.048 148.687H112.897C112.455 148.687 112.078 148.129 112.078 147.457C112.078 146.785 112.438 146.227 112.897 146.227H156.048C156.491 146.227 156.867 146.785 156.867 147.457C156.867 148.129 156.491 148.687 156.048 148.687Z" fill="white"/>
<path d="M130.37 162.511H113.306C112.635 162.511 112.078 161.953 112.078 161.281C112.078 160.608 112.635 160.051 113.306 160.051H130.387C131.058 160.051 131.615 160.608 131.615 161.281C131.615 161.953 131.058 162.511 130.37 162.511Z" fill="white"/>
<path d="M145.224 181.434H114.305C113.077 181.434 112.078 180.877 112.078 180.204C112.078 179.532 113.077 178.975 114.305 178.975H145.224C146.452 178.975 147.451 179.532 147.451 180.204C147.451 180.877 146.452 181.434 145.224 181.434Z" fill="white"/>
<path d="M178.32 162.511H135.414C134.743 162.511 134.186 161.953 134.186 161.281C134.186 160.608 134.743 160.051 135.414 160.051H178.32C178.992 160.051 179.548 160.608 179.548 161.281C179.548 161.953 178.992 162.511 178.32 162.511Z" fill="white"/>
<path d="M178.32 169.972H113.306C112.635 169.972 112.078 169.414 112.078 168.742C112.078 168.07 112.635 167.512 113.306 167.512H178.32C178.992 167.512 179.548 168.07 179.548 168.742C179.548 169.414 178.992 169.972 178.32 169.972Z" fill="white"/>
<path d="M149.203 175.58H112.766C112.389 175.58 112.078 175.023 112.078 174.35C112.078 173.678 112.389 173.12 112.766 173.12H149.203C149.58 173.12 149.891 173.678 149.891 174.35C149.891 175.023 149.58 175.58 149.203 175.58Z" fill="white"/>
<path d="M178.697 175.58H152.773C152.495 175.58 152.282 175.023 152.282 174.35C152.282 173.678 152.495 173.12 152.773 173.12H178.697C178.975 173.12 179.188 173.678 179.188 174.35C179.188 175.023 178.959 175.58 178.697 175.58Z" fill="white"/>
<path d="M13.9512 98.7869C4.89507 98.6065 1.88183 105.035 1.88183 121.171C1.88183 137.307 1.88183 146.637 1.88183 146.637C1.88183 146.637 -3.40772 160.74 7.92469 164.511C7.92469 164.511 4.91144 174.58 13.9675 179.368C13.9675 179.368 5.43549 193.504 33.0951 206.606V193.766H25.2836C25.2836 193.766 33.0787 188.436 45.148 185.665C57.2174 182.894 58.724 172.825 54.4498 170.054C50.1756 167.283 36.5996 169.3 36.5996 169.3C36.5996 169.3 56.7916 159.723 56.6278 149.654C56.4641 139.586 44.9024 141.849 44.9024 141.849C44.9024 141.849 50.4376 133.535 47.67 128.501C44.9024 123.466 29.8198 123.204 21.255 129.501L22.0083 112.119C21.9919 112.135 21.0257 98.9345 13.9512 98.7869Z" fill="#FBA795"/>
<path d="M74.9366 204.261H52.4683V206.442H74.9366V204.261Z" fill="#62687E"/>
<path d="M75.9191 219.79H60.0341V221.971H75.9191V219.79Z" fill="#62687E"/>
<path d="M88.7908 233.696H71.5957V235.877H88.7908V233.696Z" fill="#62687E"/>
<path d="M88.7908 246.896H71.5957V249.077H88.7908V246.896Z" fill="#62687E"/>
<path d="M88.7908 260.097H71.5957V262.278H88.7908V260.097Z" fill="#62687E"/>
<path d="M88.7908 273.298H71.5957V275.479H88.7908V273.298Z" fill="#62687E"/>
<path d="M88.7908 286.498H71.5957V288.679H88.7908V286.498Z" fill="#62687E"/>
<path d="M55.3996 298.928H47.5062V306.832H55.3996V298.928Z" fill="#62687E"/>
<path d="M82.5023 301.781H60.0341V303.962H82.5023V301.781Z" fill="#62687E"/>
<path d="M55.3996 311.161H47.5062V319.065H55.3996V311.161Z" fill="#62687E"/>
<path d="M82.5023 314.015H60.0341V316.196H82.5023V314.015Z" fill="#62687E"/>
<path d="M3.25738 147.129C3.11 147.129 2.96261 147.08 2.8316 146.982C2.50407 146.736 2.43857 146.244 2.66784 145.899C3.01174 145.391 11.3309 133.502 20.2232 129.567C20.5999 129.403 21.0257 129.583 21.1731 129.977C21.3204 130.37 21.1567 130.813 20.78 130.977C12.2644 134.732 3.92881 146.67 3.84693 146.785C3.71592 147.014 3.48665 147.129 3.25738 147.129Z" fill="#DD6B66"/>
<path d="M7.90826 165.348C7.71175 165.348 7.49885 165.266 7.33509 165.118C7.00756 164.806 6.99119 164.282 7.30234 163.954C8.17028 163.035 28.8372 141.537 44.8368 141.029C45.2954 140.963 45.672 141.373 45.6884 141.816C45.7048 142.275 45.3445 142.652 44.9023 142.669C29.5741 143.161 8.7107 164.856 8.49781 165.085C8.33405 165.266 8.12115 165.348 7.90826 165.348Z" fill="#DD6B66"/>
<path d="M13.9511 180.204C13.7383 180.204 13.5254 180.122 13.3616 179.958C13.0505 179.63 13.0505 179.122 13.378 178.794C13.7055 178.483 21.5334 171.038 36.4522 168.496C36.8944 168.414 37.3201 168.726 37.402 169.168C37.4839 169.611 37.1728 170.037 36.7306 170.119C22.3522 172.563 14.6062 179.893 14.5243 179.975C14.3606 180.122 14.1477 180.204 13.9511 180.204Z" fill="#DD6B66"/>
<path d="M202.377 56.4627C202.115 56.4627 201.869 56.3971 201.624 56.2824C200.838 55.8724 200.51 54.9049 200.903 54.1014C201.05 53.8062 204.604 47.0009 216.33 51.3465C217.181 51.658 217.607 52.6091 217.296 53.4455C216.985 54.2982 216.051 54.7245 215.183 54.413C206.356 51.1333 203.916 55.3969 203.818 55.5772C203.54 56.1512 202.967 56.4627 202.377 56.4627Z" fill="#35174D"/>
<path d="M190.357 58.234C189.849 58.234 189.341 57.988 189.014 57.5453C184.969 51.7731 179.679 54.3476 179.09 54.6592C178.304 55.0855 177.305 54.7903 176.879 53.9868C176.453 53.1997 176.748 52.1994 177.534 51.773C180.4 50.2152 187.032 49.0181 191.683 55.6594C192.207 56.3974 192.027 57.4305 191.29 57.9388C191.012 58.1356 190.684 58.234 190.357 58.234Z" fill="#35174D"/>
<path d="M201.1 79.0434C201.083 79.0434 201.067 79.0434 201.05 79.0434C200.281 78.9942 196.416 78.6826 195.384 76.7968C195.122 76.3212 194.926 75.5341 195.499 74.5174C196.973 71.8773 196.76 62.4483 193.485 60.4805C193.092 60.2509 192.977 59.7426 193.206 59.349C193.435 58.9554 193.943 58.8406 194.336 59.0702C198.594 61.6284 198.807 71.9593 196.94 75.3209C196.694 75.7637 196.793 75.9441 196.842 76.0261C197.284 76.8296 199.691 77.3379 201.165 77.4199C201.624 77.4527 201.967 77.8299 201.935 78.289C201.886 78.7154 201.525 79.0434 201.1 79.0434Z" fill="#DD6B66"/>
<path d="M202.148 84.2579C200.084 84.2579 198.561 83.7659 198.528 83.7659C198.103 83.6183 197.857 83.1592 198.004 82.7328C198.152 82.3065 198.61 82.0605 199.036 82.2081C199.298 82.2901 205.57 84.2579 208.977 79.2564C209.239 78.8792 209.746 78.7972 210.123 79.0432C210.5 79.3056 210.598 79.8139 210.336 80.1911C208.043 83.52 204.702 84.2579 202.148 84.2579Z" fill="#DD6B66"/>
<path d="M189.276 70.1882C188.146 70.1882 187.147 69.0076 186.852 67.3022C186.541 65.4655 187.229 63.9241 188.457 63.7109C189.112 63.5961 189.784 63.9077 190.308 64.5472C190.717 65.072 191.028 65.7771 191.159 66.5642C191.47 68.4008 190.783 69.9423 189.554 70.1555C189.456 70.1718 189.358 70.1882 189.276 70.1882ZM188.719 65.3344C188.604 65.3999 188.293 66.0231 188.473 67.0234C188.637 68.0237 189.129 68.5156 189.292 68.532C189.407 68.4664 189.718 67.8433 189.538 66.843C189.358 65.8427 188.867 65.3508 188.719 65.3344Z" fill="#35164B"/>
<path d="M209.926 68.2696C208.796 68.2696 207.798 67.0889 207.503 65.3835C207.192 63.5468 207.879 62.0054 209.108 61.7922C209.763 61.6938 210.434 61.989 210.958 62.6285C211.368 63.1533 211.679 63.8584 211.81 64.6455C212.121 66.4821 211.433 68.0236 210.205 68.2368C210.107 68.2532 210.008 68.2696 209.926 68.2696ZM209.37 63.4157C209.255 63.4813 208.944 64.1044 209.124 65.1047C209.288 66.105 209.779 66.5969 209.943 66.6133C210.057 66.5477 210.369 65.9246 210.188 64.9243C210.008 63.924 209.517 63.4321 209.37 63.4157Z" fill="#35164B"/>
<path d="M210.794 78.3874C204.096 78.3874 198.627 72.9268 198.627 66.2035C198.627 59.4966 204.08 54.0195 210.794 54.0195C217.509 54.0195 222.962 59.4802 222.962 66.2035C222.962 72.9104 217.509 78.3874 210.794 78.3874ZM210.794 55.6594C204.997 55.6594 200.264 60.3821 200.264 66.2035C200.264 72.0249 204.981 76.7476 210.794 76.7476C216.608 76.7476 221.324 72.0249 221.324 66.2035C221.324 60.3821 216.608 55.6594 210.794 55.6594Z" fill="white"/>
<path d="M181.71 80.1257C175.012 80.1257 169.542 74.6651 169.542 67.9418C169.542 61.2348 174.996 55.7578 181.71 55.7578C188.408 55.7578 193.861 61.2184 193.861 67.9418C193.861 74.6651 188.408 80.1257 181.71 80.1257ZM181.71 57.414C175.913 57.414 171.18 62.1368 171.18 67.9581C171.18 73.7795 175.896 78.5023 181.71 78.5023C187.524 78.5023 192.224 73.7795 192.224 67.9581C192.224 62.1368 187.507 57.414 181.71 57.414Z" fill="white"/>
<path d="M198.724 65.0365L193.282 65.3882L193.387 67.0246L198.829 66.6729L198.724 65.0365Z" fill="white"/>
<path d="M233.113 43.5983L220.483 61.0649L221.81 62.0267L234.44 44.56L233.113 43.5983Z" fill="white"/>
<path d="M238.29 60.5951C238.126 60.5951 237.963 60.5459 237.815 60.4475C237.439 60.1852 237.357 59.6768 237.602 59.2997C239.207 56.9875 239.797 54.8885 239.371 53.0519C238.831 50.7069 236.751 49.5427 236.734 49.5427C236.341 49.3295 236.194 48.8211 236.407 48.4276C236.62 48.034 237.111 47.8864 237.52 48.0996C237.635 48.1652 240.239 49.6083 240.959 52.6583C241.516 54.9705 240.828 57.5286 238.945 60.2508C238.814 60.4639 238.552 60.5951 238.29 60.5951Z" fill="#DD6B66"/>
<path d="M236.44 55.6593H236.423C235.965 55.6429 235.621 55.2657 235.621 54.823C235.621 54.577 235.719 52.4616 237.078 51.5597C237.57 51.2317 238.421 50.953 239.649 51.4449C240.075 51.6089 240.272 52.0845 240.108 52.5108C239.944 52.9372 239.453 53.134 239.044 52.97C238.585 52.7896 238.225 52.7732 237.979 52.9372C237.455 53.2815 237.275 54.3966 237.258 54.8722C237.242 55.3149 236.882 55.6593 236.44 55.6593Z" fill="#DD6B66"/>
</svg>
